HIERARCHY
ROOT Hips
{
	OFFSET 0.00 0.00 0.00
	CHANNELS 6 Xposition Yposition Zposition Xrotation Yrotation Zrotation
	JOINT RightUpLeg
	{
		OFFSET -3.76699 0.00000 0.00000
		CHANNELS 3 Xrotation Yrotation Zrotation
		JOINT RightLeg
		{
			OFFSET 0.00000 -18.01768 0.00000
			CHANNELS 3 Xrotation Yrotation Zrotation
			JOINT RightFoot
			{
				OFFSET 0.00000 -16.88108 0.00000
				CHANNELS 3 Xrotation Yrotation Zrotation
				JOINT RightToeBase
				{
					OFFSET 0.00000 -1.49359 5.57418
					CHANNELS 3 Xrotation Yrotation Zrotation
					End Site
					{
						OFFSET 0.00000 0.00000 2.95275
					}
				}
			}
		}
	}
	JOINT LeftUpLeg
	{
		OFFSET 3.76699 0.00000 0.00000
		CHANNELS 3 Xrotation Yrotation Zrotation
		JOINT LeftLeg
		{
			OFFSET 0.00000 -18.01768 0.00000
			CHANNELS 3 Xrotation Yrotation Zrotation
			JOINT LeftFoot
			{
				OFFSET 0.00000 -16.88108 0.00000
				CHANNELS 3 Xrotation Yrotation Zrotation
				JOINT LeftToeBase
				{
					OFFSET 0.00000 -1.49359 5.57418
					CHANNELS 3 Xrotation Yrotation Zrotation
					End Site
					{
						OFFSET 0.00000 0.00000 2.95275
					}
				}
			}
		}
	}
	JOINT Spine
	{
		OFFSET 0.00000 7.77970 0.00000
		CHANNELS 3 Xrotation Yrotation Zrotation
		JOINT RightShoulder
		{
			OFFSET 0.00000 10.94176 0.00000
			CHANNELS 3 Xrotation Yrotation Zrotation
			JOINT RightArm
			{
				OFFSET -7.70894 0.00000 0.00000
				CHANNELS 3 Xrotation Yrotation Zrotation
				JOINT RightForeArm
				{
					OFFSET -11.52135 0.00000 0.00000
					CHANNELS 3 Yrotation Zrotation Xrotation
					JOINT RightHand
					{
						OFFSET -10.17590 0.00000 0.00000
						CHANNELS 3 Xrotation Yrotation Zrotation
						End Site
						{
							OFFSET -3.93700 0.00000 0.00000
						}
						JOINT RightHandThumb1
						{
							OFFSET 0.00000 0.00000 0.00000
							CHANNELS 3 Xrotation Zrotation Yrotation
							End Site
							{
								OFFSET 0.00000 0.00000 3.93700
							}
						}
					}
				}
			}
		}
		JOINT LeftShoulder
		{
			OFFSET 0.00000 10.94176 0.00000
			CHANNELS 3 Xrotation Yrotation Zrotation
			JOINT LeftArm
			{
				OFFSET 7.70894 0.00000 0.00000
				CHANNELS 3 Xrotation Yrotation Zrotation
				JOINT LeftForeArm
				{
					OFFSET 11.52135 0.00000 0.00000
					CHANNELS 3 Yrotation Zrotation Xrotation
					JOINT LeftHand
					{
						OFFSET 10.17590 0.00000 0.00000
						CHANNELS 3 Xrotation Yrotation Zrotation
						End Site
						{
							OFFSET 3.93700 0.00000 0.00000
						}
						JOINT LeftHandThumb1
						{
							OFFSET 0.00000 0.00000 0.00000
							CHANNELS 3 Xrotation Zrotation Yrotation
							End Site
							{
								OFFSET 0.00000 0.00000 3.93700
							}
						}
					}
				}
			}
		}
		JOINT Head
		{
			OFFSET 0.00000 16.64604 0.00000
			CHANNELS 3 Xrotation Yrotation Zrotation
			End Site
			{
				OFFSET 0.00000 4.52755 0.00000
			}
		}
	}
}
MOTION
Frames: 15
Frame Time: 0.008333
 1.0651 37.0950 4.4677 -1.4569 -1.6695 2.0424 10.5314 -4.1499 -5.2139 -6.6265 -0.0000 0.0000 -6.5081 -23.5949 10.3078 14.1271 -0.0000 0.0000 8.5607 4.6475 1.5713 -3.3922 0.0000 -0.0000 -4.3028 18.5696 -11.7938 9.5113 -0.0000 -0.0000 3.9900 -4.0405 -0.8924 7.4589 -10.1117 -27.5692 -29.5474 -5.7247 24.4530 16.9509 0.0000 -6.4299 -0.0345 3.0853 0.6408 32.8623 0.0000 -24.3270 25.8698 31.9064 14.6140 -65.6367 1.9822 -32.3333 -4.7670 0.0000 39.6367 1.3959 16.0070 -5.0501 33.1476 -0.0000 26.2537 -2.6699 11.8431 2.9374
 1.0639 37.0946 4.4693 -1.4768 -1.6555 2.0409 10.5651 -4.1636 -5.2138 -6.6425 0.0000 -0.0000 -6.5000 -23.5806 10.3619 14.1306 -0.0000 0.0000 8.5815 4.6303 1.5775 -3.3915 -0.0000 0.0000 -4.3109 18.5791 -11.8172 9.5333 -0.0000 -0.0000 3.9933 -4.0605 -0.8818 7.4536 -10.0829 -27.5791 -29.5335 -5.7418 24.4756 16.9724 0.0000 -6.4170 -0.0348 3.0795 0.6479 32.8623 0.0000 -24.3270 25.8951 31.9286 14.5779 -65.6250 1.9301 -32.3460 -4.7512 0.0000 39.6264 1.3943 15.9914 -5.0489 33.1476 -0.0000 26.2537 -2.6138 11.8205 2.9236
 1.0636 37.0942 4.4684 -1.4875 -1.6563 2.0458 10.5661 -4.1883 -5.2138 -6.6341 -0.0000 0.0000 -6.5106 -23.5601 10.3096 14.0979 -0.0000 0.0000 8.5927 4.6170 1.5724 -3.3953 -0.0000 -0.0000 -4.3098 18.5953 -11.8102 9.5386 0.0000 0.0000 3.9964 -4.0575 -0.8762 7.4701 -10.1000 -27.5773 -29.5879 -5.7345 24.5070 16.9709 0.0000 -6.3828 -0.0330 3.1087 0.6085 32.8623 0.0000 -24.3270 25.9049 31.9171 14.5745 -65.6035 1.9476 -32.3442 -4.7768 0.0000 39.6459 1.4023 16.0210 -5.0687 33.1476 -0.0000 26.2537 -2.5780 11.8144 2.9096
 1.0633 37.0940 4.4684 -1.4937 -1.6622 2.0482 10.5689 -4.1920 -5.2158 -6.6298 -0.0000 -0.0000 -6.5183 -23.5526 10.2912 14.1054 0.0000 -0.0000 8.6007 4.6206 1.5691 -3.3972 0.0000 0.0000 -4.3114 18.6038 -11.8239 9.5716 -0.0000 -0.0000 3.9857 -4.0425 -0.8638 7.4889 -10.1088 -27.5942 -29.6054 -5.7384 24.5499 16.9747 0.0000 -6.3874 -0.0313 3.0980 0.5787 32.8623 0.0000 -24.3270 25.9174 31.8933 14.5748 -65.5622 1.9570 -32.3394 -4.7940 0.0000 39.6420 1.4148 15.9963 -5.1215 33.1476 -0.0000 26.2537 -2.5305 11.8455 2.8937
 1.0618 37.0939 4.4674 -1.5052 -1.6580 2.0413 10.5771 -4.1944 -5.2111 -6.6214 0.0000 -0.0000 -6.5155 -23.5485 10.3577 14.1165 -0.0000 -0.0000 8.6065 4.6166 1.5807 -3.3908 -0.0000 0.0000 -4.3114 18.5943 -11.8204 9.4980 0.0000 -0.0000 3.9862 -4.0435 -0.8440 7.4729 -10.0842 -27.5941 -29.5610 -5.7202 24.5638 16.9700 0.0000 -6.4209 -0.0294 3.0597 0.5502 32.8623 0.0000 -24.3270 25.9205 31.8868 14.5768 -65.5280 1.9621 -32.3494 -4.8097 0.0000 39.6249 1.4148 16.0090 -5.1174 33.1476 -0.0000 26.2537 -2.4830 11.8331 2.8739
 1.0612 37.0940 4.4661 -1.5108 -1.6530 2.0389 10.5779 -4.1979 -5.2076 -6.6143 -0.0000 0.0000 -6.5202 -23.5440 10.3520 14.1238 -0.0000 -0.0000 8.6076 4.6127 1.5837 -3.3864 0.0000 0.0000 -4.3148 18.5963 -11.8127 9.4852 -0.0000 0.0000 3.9812 -4.0419 -0.8262 7.4897 -10.0953 -27.5956 -29.5866 -5.7093 24.5897 16.9671 0.0000 -6.3992 -0.0313 3.0486 0.5890 32.8623 0.0000 -24.3270 25.9395 31.8865 14.5646 -65.5367 1.9670 -32.3638 -4.8090 0.0000 39.6380 1.4180 15.9807 -5.1378 33.1476 -0.0000 26.2537 -2.4337 11.8487 2.8505
 1.0596 37.0941 4.4646 -1.5198 -1.6544 2.0305 10.5855 -4.1819 -5.1983 -6.6111 0.0000 0.0000 -6.5180 -23.5502 10.3452 14.1051 0.0000 -0.0000 8.6089 4.6361 1.5943 -3.3791 0.0000 -0.0000 -4.3225 18.5772 -11.8155 9.5472 0.0000 -0.0000 3.9855 -4.0290 -0.8069 7.5049 -10.1104 -27.5915 -29.6105 -5.6970 24.6140 16.9623 0.0000 -6.3923 -0.0332 3.0545 0.6223 32.8623 0.0000 -24.3270 25.9571 31.8920 14.5594 -65.5439 1.9768 -32.3839 -4.8285 0.0000 39.6666 1.4325 15.9686 -5.1940 33.1476 -0.0000 26.2537 -2.4083 11.8533 2.8402
 1.0591 37.0940 4.4640 -1.5343 -1.6502 2.0319 10.5960 -4.1832 -5.1991 -6.6043 0.0000 0.0000 -6.5247 -23.5542 10.3464 14.1198 -0.0000 0.0000 8.6200 4.6431 1.5930 -3.3783 0.0000 -0.0000 -4.3232 18.5774 -11.8161 9.5575 -0.0000 0.0000 3.9961 -4.0189 -0.7961 7.4982 -10.1132 -27.6036 -29.7281 -5.7540 24.6522 16.9617 0.0000 -6.2508 -0.0371 3.0481 0.6973 32.8623 0.0000 -24.3270 25.9618 31.8860 14.5637 -65.5248 1.9776 -32.3983 -4.8306 0.0000 39.6489 1.4353 15.9577 -5.2073 33.1476 -0.0000 26.2537 -2.3739 11.8584 2.8120
 1.0585 37.0943 4.4621 -1.5397 -1.6430 2.0278 10.5930 -4.1957 -5.1940 -6.5926 0.0000 0.0000 -6.5253 -23.5518 10.3733 14.1212 0.0000 -0.0000 8.6187 4.6306 1.5981 -3.3729 0.0000 0.0000 -4.3235 18.5837 -11.8069 9.5550 0.0000 0.0000 3.9946 -4.0194 -0.7772 7.5090 -10.0953 -27.5890 -29.6066 -5.7276 24.6457 17.0085 0.0000 -6.3587 -0.0392 2.9638 0.7589 32.8623 0.0000 -24.3270 25.9758 31.8939 14.5530 -65.5363 1.9786 -32.4182 -4.8323 0.0000 39.6656 1.4435 15.9440 -5.2414 33.1476 -0.0000 26.2537 -2.3391 11.8949 2.7952
 1.0574 37.0945 4.4607 -1.5521 -1.6363 2.0225 10.6044 -4.1877 -5.1873 -6.5922 -0.0000 0.0000 -6.5193 -23.5639 10.3641 14.1381 -0.0000 0.0000 8.6236 4.6426 1.6059 -3.3667 0.0000 -0.0000 -4.3271 18.5711 -11.8257 9.5643 0.0000 0.0000 4.0068 -4.0004 -0.7564 7.5349 -10.1275 -27.5934 -29.7413 -5.7741 24.6875 17.0071 0.0000 -6.2199 -0.0393 2.9509 0.7628 32.8623 0.0000 -24.3270 25.9692 31.8796 14.5529 -65.5263 1.9462 -32.4272 -4.7867 0.0000 39.6215 1.4448 15.8897 -5.2634 33.1476 -0.0000 26.2537 -2.3220 11.9115 2.7797
 1.0571 37.0946 4.4594 -1.5642 -1.6340 2.0216 10.6114 -4.1866 -5.1852 -6.5833 -0.0000 0.0000 -6.5292 -23.5606 10.3499 14.1151 -0.0000 0.0000 8.6272 4.6551 1.6063 -3.3559 0.0000 0.0000 -4.3324 18.5547 -11.7990 9.5246 0.0000 -0.0000 4.0195 -3.9977 -0.7447 7.5396 -10.1181 -27.5852 -29.6323 -5.7425 24.7019 17.0499 0.0000 -6.3628 -0.0330 2.9904 0.6332 32.8623 0.0000 -24.3270 25.9822 31.9081 14.5394 -65.5502 1.9343 -32.4651 -4.7881 0.0000 39.6861 1.4004 16.0707 -5.0467 33.1476 -0.0000 26.2537 -2.3029 11.9358 2.7592
 1.0564 37.0948 4.4581 -1.5733 -1.6234 2.0243 10.6161 -4.1989 -5.1855 -6.5775 0.0000 0.0000 -6.5345 -23.5570 10.3436 14.1043 0.0000 -0.0000 8.6260 4.6576 1.6066 -3.3433 -0.0000 -0.0000 -4.3284 18.5380 -11.8027 9.4935 -0.0000 0.0000 4.0241 -3.9967 -0.7375 7.5268 -10.1019 -27.5838 -29.5822 -5.7391 24.7256 17.0605 0.0000 -6.4054 -0.0289 3.0018 0.5518 32.8623 0.0000 -24.3270 25.9727 31.9013 14.5427 -65.5312 1.9212 -32.4708 -4.7795 0.0000 39.6598 1.4044 16.0701 -5.0613 33.1476 -0.0000 26.2537 -2.2786 11.9661 2.7598
 1.0563 37.0951 4.4562 -1.5850 -1.6169 2.0224 10.6214 -4.1938 -5.1830 -6.5658 0.0000 -0.0000 -6.5386 -23.5684 10.3381 14.1169 0.0000 -0.0000 8.6291 4.6552 1.6103 -3.3356 -0.0000 0.0000 -4.3288 18.5359 -11.8224 9.5390 -0.0000 0.0000 4.0375 -3.9882 -0.7255 7.4761 -10.0450 -27.5755 -29.6144 -5.8092 24.7180 17.0488 0.0000 -6.3047 -0.0330 3.0175 0.6266 32.8623 0.0000 -24.3270 25.9695 31.9022 14.5385 -65.5511 1.9120 -32.4813 -4.7608 0.0000 39.6728 1.4152 16.0022 -5.1208 33.1476 -0.0000 26.2537 -2.2632 11.9881 2.7460
 1.0560 37.0953 4.4540 -1.5968 -1.5996 2.0277 10.6309 -4.1983 -5.1853 -6.5650 0.0000 0.0000 -6.5357 -23.5795 10.3301 14.0938 -0.0000 0.0000 8.6275 4.6451 1.6086 -3.3236 -0.0000 -0.0000 -4.3330 18.5333 -11.8126 9.5627 0.0000 -0.0000 4.0502 -3.9940 -0.7197 7.5488 -10.0882 -27.5555 -29.5817 -5.7619 24.7451 17.0894 0.0000 -6.3510 -0.0280 2.9510 0.5433 32.8623 0.0000 -24.3270 25.9584 31.8996 14.5544 -65.5357 1.9139 -32.4987 -4.7579 0.0000 39.6778 1.4170 16.0382 -5.1165 33.1476 -0.0000 26.2537 -2.2412 12.0085 2.7267
 1.0558 37.0954 4.4522 -1.6034 -1.5897 2.0290 10.6341 -4.2013 -5.1845 -6.5586 0.0000 -0.0000 -6.5476 -23.5840 10.3187 14.0980 0.0000 0.0000 8.6219 4.6604 1.6090 -3.3090 0.0000 -0.0000 -4.3370 18.5083 -11.8171 9.5752 0.0000 -0.0000 4.0558 -3.9918 -0.7108 7.5415 -10.0712 -27.5491 -29.5450 -5.7585 24.7588 17.0910 0.0000 -6.3269 -0.0261 2.9338 0.5091 32.8623 0.0000 -24.3270 25.9666 31.8917 14.5479 -65.5569 1.9568 -32.4900 -4.8223 0.0000 39.7319 1.4427 16.0756 -5.1968 33.1476 -0.0000 26.2537 -2.2278 12.0523 2.7324
